<svg width="18" height="21" viewBox="0 0 18 21" fill="none" xmlns="http://www.w3.org/2000/svg">
<mask id="mask0_2_16783" style="mask-type:luminance" maskUnits="userSpaceOnUse" x="0" y="0" width="18" height="21">
<path d="M17.889 0L0 0V21H17.889V0Z" fill="white"/>
</mask>
<g mask="url(#mask0_2_16783)">
<path d="M14.915 20.1605C13.7635 21.265 12.493 21.0929 11.282 20.572C9.99449 20.0408 8.81747 20.0072 7.45773 20.572C5.76443 21.2945 4.86573 21.0845 3.84593 20.1605C-1.91171 14.3015 -1.06187 5.37648 5.48186 5.04048C7.06893 5.12448 8.18009 5.90778 9.11491 5.97288C10.5044 5.69358 11.8344 4.89348 13.3216 4.99848C15.1083 5.14128 16.4447 5.83848 17.3371 7.09218C13.6615 9.27618 14.5326 14.0642 17.9087 15.4082C17.2329 17.1617 16.3661 18.8942 14.913 20.1752L14.915 20.1605ZM8.98744 4.97748C8.81535 2.37348 10.9506 0.231484 13.4066 0.0214844C13.7444 3.02448 10.6446 5.27148 8.98744 4.97748Z" fill="black"/>
</g>
</svg>