<svg width="15" height="15" viewBox="0 0 15 15" fill="none" xmlns="http://www.w3.org/2000/svg">
<path d="M12.7498 7.20833C12.7498 9.94675 10.5298 12.1667 7.79143 12.1667C7.16331 12.1667 6.56246 12.0499 6.00943 11.8368C5.90832 11.7979 5.85777 11.7784 5.81756 11.7691C5.77802 11.76 5.7494 11.7562 5.70885 11.7546C5.66762 11.7531 5.62239 11.7577 5.53192 11.7671L2.54466 12.0759C2.25985 12.1053 2.11745 12.12 2.03345 12.0688C1.96028 12.0242 1.91045 11.9496 1.89718 11.865C1.88195 11.7677 1.95 11.6418 2.0861 11.3899L3.04023 9.62381C3.11881 9.47837 3.1581 9.40565 3.17589 9.33572C3.19347 9.26667 3.19771 9.21687 3.19209 9.14583C3.1864 9.07391 3.15484 8.98028 3.09173 8.79302C2.92401 8.29543 2.83309 7.7625 2.83309 7.20833C2.83309 4.46992 5.05302 2.25 7.79143 2.25C10.5298 2.25 12.7498 4.46992 12.7498 7.20833Z" stroke="#60707A" stroke-linecap="round" stroke-linejoin="round"/>
</svg>