<svg width="10" height="10" viewBox="0 0 10 10" fill="none" xmlns="http://www.w3.org/2000/svg">
<path d="M0.750778 1.72615C0.834951 1.58001 0.956478 1.4589 1.10289 1.37522C1.24931 1.29155 1.41535 1.24832 1.58398 1.24997L8.41601 1.24997C8.58464 1.24832 8.75068 1.29155 8.8971 1.37522C9.04352 1.4589 9.16504 1.58001 9.24921 1.72615C9.33135 1.86673 9.37463 2.02661 9.37463 2.18943C9.37463 2.35224 9.33135 2.51213 9.24921 2.65271L5.83398 8.58513C5.74862 8.73047 5.62675 8.85098 5.48047 8.93472C5.33418 9.01845 5.16855 9.0625 5 9.0625C4.83144 9.0625 4.66581 9.01845 4.51953 8.93472C4.37324 8.85098 4.25137 8.73047 4.16601 8.58513L0.749997 2.65271C0.667981 2.51206 0.624831 2.35214 0.624969 2.18932C0.625106 2.02651 0.668526 1.86666 0.750778 1.72615Z" fill="#FF6154"/>
</svg>