<svg width="24" height="23" viewBox="0 0 24 23" fill="none" xmlns="http://www.w3.org/2000/svg">
<path d="M22.2441 13.6457C22.2443 8.63065 19.737 5.04833 16.513 5.04817C14.0055 5.04804 12.2142 7.91371 12.2142 7.91371C10.7813 10.0629 10.7811 14.0034 12.9306 9.70484C12.9306 9.70484 14.7218 6.83918 16.5129 6.83927C19.0205 6.83939 20.3416 11.1381 20.3414 13.6456C20.3414 14.3621 20.0947 15.7949 18.6618 15.7949L18.6617 17.9442C20.0946 17.9442 22.2439 16.8697 22.2441 13.6457Z" fill="url(#paint0_radial_2_16794)"/>
<path d="M7.92054 5.04558L7.92043 7.1949C5.62781 7.48135 4.33804 11.1351 4.33791 13.6427C4.33788 14.3591 4.69602 15.792 5.77068 15.792C7.56178 15.7921 9.62154 11.8375 11.5025 8.94504C12.5011 7.40956 13.4949 8.72806 12.737 10.0609C10.9412 13.219 9.14286 17.9415 5.77057 17.9414C4.33769 17.9413 2.18843 16.8665 2.1886 13.6426C2.18892 7.1946 6.12945 5.04549 7.92054 5.04558Z" fill="url(#paint1_radial_2_16794)"/>
<path d="M18.6632 15.7942C16.1556 15.7941 13.2904 5.04739 7.91714 5.04712L7.91703 7.19643C12.2156 7.19665 14.0062 17.9433 18.6631 17.9436L18.6632 15.7942Z" fill="#0768E1"/>
<defs>
<radialGradient id="paint0_radial_2_16794" cx="0" cy="0" r="1" gradientUnits="userSpaceOnUse" gradientTransform="translate(18.6617 17.2277) rotate(-101.307) scale(12.786 9.94464)">
<stop stop-color="#0768E1"/>
<stop offset="1" stop-color="#0082FB"/>
</radialGradient>
<radialGradient id="paint1_radial_2_16794" cx="0" cy="0" r="1" gradientUnits="userSpaceOnUse" gradientTransform="translate(7.92047 6.47846) rotate(154.54) scale(8.33197 4.37005)">
<stop stop-color="#0768E1"/>
<stop offset="1" stop-color="#0082FB"/>
</radialGradient>
</defs>
</svg>