<svg width="22" height="17" viewBox="0 0 22 17" fill="none" xmlns="http://www.w3.org/2000/svg">
<g clip-path="url(#clip0_2_16800)">
<mask id="mask0_2_16800" style="mask-type:luminance" maskUnits="userSpaceOnUse" x="0" y="0" width="22" height="17">
<path d="M21.3164 0.452239L0.316406 0.451172L0.315595 16.4146L21.3156 16.4157L21.3164 0.452239Z" fill="white"/>
</mask>
<g mask="url(#mask0_2_16800)">
<path d="M3.58015 6.14931C3.58015 6.14931 5.33147 3.48195 8.82804 3.20617L8.82809 2.23842C4.9552 2.55934 1.60128 5.94554 1.60128 5.94554C1.60128 5.94554 3.5005 11.6147 8.82758 12.1339L8.82763 11.1053C4.91837 10.5974 3.58015 6.14931 3.58015 6.14931ZM8.82774 9.05963L8.82769 10.0017C5.87316 9.45771 5.05321 6.28689 5.05321 6.28689C5.05321 6.28689 6.47192 4.66457 8.82798 4.40159L8.82792 5.43529C8.82612 5.43529 8.82486 5.43473 8.82338 5.43473C7.58681 5.28146 6.62077 6.474 6.62077 6.474C6.62077 6.474 7.16208 8.48173 8.82774 9.05963ZM8.82818 0.453492L8.82809 2.23842C8.94175 2.22943 9.05547 2.22181 9.16979 2.2178C13.5728 2.06482 16.4415 5.9463 16.4415 5.9463C16.4415 5.9463 13.1463 10.0825 9.71348 10.0824C9.39885 10.0823 9.1043 10.0522 8.82769 10.0016L8.82763 11.1053C9.06421 11.1363 9.30947 11.1546 9.56541 11.1546C12.7598 11.1548 15.0701 9.47065 17.3071 7.47735C17.678 7.78401 19.1963 8.53006 19.5084 8.85665C17.3814 10.6949 12.4245 12.1766 9.61431 12.1765C9.34339 12.1764 9.0833 12.1594 8.82758 12.1339L8.8275 13.685L20.9694 13.6856L20.9701 0.45411L8.82818 0.453492ZM8.82798 4.40159L8.82804 3.20617C8.94055 3.19806 9.05394 3.19188 9.16974 3.18811C12.3359 3.0856 14.413 5.99737 14.413 5.99737C14.413 5.99737 12.1692 9.21419 9.76363 9.21406C9.41744 9.21405 9.10708 9.1566 8.82774 9.05963L8.82792 5.43529C10.0605 5.58912 10.3085 6.15123 11.0495 7.42666L12.6977 5.99198C12.6977 5.99198 11.4947 4.36292 9.46653 4.36282C9.2461 4.36273 9.03512 4.3787 8.82798 4.40159Z" fill="#77B900"/>
</g>
</g>
<defs>
<clipPath id="clip0_2_16800">
<rect width="21" height="16" fill="white" transform="translate(0.316406 0.451172)"/>
</clipPath>
</defs>
</svg>