<svg width="136" height="20" viewBox="0 0 136 20" fill="none" xmlns="http://www.w3.org/2000/svg">
<path d="M22.3076 18.964C21.3732 18.3825 20.6729 17.6047 20.2084 16.6307C19.7439 15.6567 19.5117 14.5873 19.5117 13.4243C19.5117 11.9336 19.8681 10.4789 20.5811 9.06022C21.294 7.64154 22.3328 6.48212 23.6993 5.58014C25.0657 4.67816 26.6627 4.22627 28.4936 4.22627C29.8133 4.22627 30.9313 4.45132 31.8477 4.90321C32.7623 5.35329 33.4518 5.98162 33.9163 6.78638C34.3808 7.59113 34.6058 8.52912 34.5932 9.60033H30.8485C30.7837 8.81538 30.5208 8.24646 30.0635 7.89359C29.6062 7.54072 28.9257 7.36429 28.0237 7.36429C27.0173 7.36429 26.1316 7.64514 25.3664 8.20686C24.6013 8.76857 24.0197 9.48511 23.6219 10.3547C23.2222 11.2242 23.0241 12.11 23.0241 13.012C23.0241 14.0706 23.3014 14.951 23.8577 15.6495C24.414 16.3481 25.2278 16.6991 26.299 16.6991C27.2136 16.6991 27.9985 16.5263 28.652 16.1788C29.3056 15.8332 29.7827 15.3579 30.0833 14.7565C30.1355 14.6395 30.1878 14.5117 30.24 14.3749C30.2922 14.238 30.348 14.1192 30.4074 14.022C30.4668 13.9248 30.555 13.8294 30.672 13.7375L30.5748 13.6205C30.3912 13.7772 30.2256 13.8762 30.0743 13.914C29.9231 13.9536 29.6981 13.9734 29.3974 13.9734H27.2982L27.7879 11.1504H34.4168L32.9459 19.5041H29.7503L30.1031 17.6407H29.7503C29.5936 18.3861 29.1814 18.9388 28.5152 19.297C27.8491 19.6571 26.9273 19.8371 25.7499 19.8371C24.3906 19.8371 23.242 19.5455 22.3076 18.964Z" fill="black"/>
<path d="M44.8121 19.5037H34.5951L37.2434 4.54093H47.4604L46.8915 7.67895H40.1852L39.6955 10.4641H45.7555L45.2064 13.5823H39.1464L38.6567 16.3675H45.363L44.8139 19.5055L44.8121 19.5037Z" fill="black"/>
<path d="M46.4558 19.5037L49.1041 4.54093H52.6148L56.0067 12.1294C56.1363 12.4031 56.2425 12.6695 56.3199 12.9234C56.3973 13.1772 56.464 13.5355 56.5162 13.9928H56.9663C56.9537 13.5229 56.9573 13.1556 56.9753 12.8946C56.9951 12.6335 57.0365 12.3131 57.1031 11.9332L58.4173 4.54093H61.928L59.2815 19.5037H55.751L52.3394 11.7964C52.3267 11.7568 52.2799 11.6487 52.2025 11.4723C52.1251 11.2959 52.0549 11.0834 51.9973 10.835C51.9379 10.5865 51.8893 10.3129 51.8497 10.0104H51.4176C51.4302 10.4803 51.4266 10.844 51.4086 11.0996C51.3888 11.3553 51.3456 11.6721 51.2807 12.0502L49.9665 19.5019H46.4558V19.5037Z" fill="black"/>
<path d="M63.7374 19V4.09515H67.9374L70.7894 14.0773C70.9196 14.5071 71.0108 14.9108 71.0629 15.2884C71.128 15.6531 71.1606 16.0894 71.1606 16.5973H71.4731C71.4731 16.0894 71.4992 15.6531 71.5512 15.2884C71.6164 14.9108 71.714 14.5071 71.8443 14.0773L74.6963 4.09515H78.8962V19H76.4153V8.33415C76.4153 7.64393 76.4544 6.90813 76.5325 6.12674L76.22 6.08768C76.0507 7.05138 75.8814 7.8002 75.7121 8.33415L72.528 19H70.1057L66.9216 8.33415C66.7523 7.8002 66.583 7.05138 66.4137 6.08768L66.1206 6.12674C66.1858 6.90813 66.2183 7.64393 66.2183 8.33415V19H63.7374ZM87.881 19.2539C86.3183 19.2539 85.003 18.9088 83.9351 18.2186C82.8672 17.5154 82.0663 16.5842 81.5323 15.4252C81.0114 14.2531 80.7509 12.9573 80.7509 11.5378C80.7509 10.1183 81.0114 8.82902 81.5323 7.66997C82.0663 6.51092 82.8672 5.58629 83.9351 4.89607C85.003 4.20585 86.3183 3.86074 87.881 3.86074C89.4308 3.86074 90.7396 4.20585 91.8075 4.89607C92.8884 5.58629 93.6893 6.51744 94.2102 7.68951C94.7442 8.84856 95.0111 10.1313 95.0111 11.5378C95.0111 12.9573 94.7442 14.2531 94.2102 15.4252C93.6893 16.5842 92.8884 17.5154 91.8075 18.2186C90.7396 18.9088 89.4308 19.2539 87.881 19.2539ZM87.881 17.027C89.3266 17.027 90.4466 16.5256 91.241 15.5229C92.0484 14.5201 92.4521 13.1917 92.4521 11.5378C92.4521 9.89691 92.0484 8.57507 91.241 7.5723C90.4466 6.56953 89.3266 6.06814 87.881 6.06814C86.9304 6.06814 86.1099 6.30256 85.4197 6.77138C84.7295 7.22719 84.202 7.87183 83.8374 8.7053C83.4858 9.52575 83.31 10.4699 83.31 11.5378C83.31 12.6187 83.4858 13.5759 83.8374 14.4094C84.202 15.2298 84.7295 15.8745 85.4197 16.3433C86.1099 16.7991 86.9304 17.027 87.881 17.027ZM96.8744 19V4.09515H99.8827L105.196 13.8038C105.378 14.1294 105.522 14.4224 105.626 14.6829C105.743 14.9303 105.867 15.2754 105.997 15.7182L106.31 15.6596C106.231 15.1126 106.192 14.5005 106.192 13.8233V4.09515H108.654V19H105.665L100.312 9.23274C100.143 8.93321 99.9999 8.65972 99.8827 8.41228C99.7785 8.15182 99.6678 7.80671 99.5506 7.37695L99.2381 7.45509C99.3162 8.00206 99.3553 8.60763 99.3553 9.2718V19H96.8744ZM120.923 19H111.058V4.09515H120.923V6.32209H113.539V10.4243H120.103V12.6317H113.539V16.7731H120.923V19ZM126.845 19V13.2178L121.356 4.09515H124.247L127.411 9.56482C127.633 9.94249 127.783 10.229 127.861 10.4243C127.939 10.6197 127.978 10.8671 127.978 11.1667H128.291C128.291 10.8671 128.323 10.6197 128.388 10.4243C128.466 10.216 128.616 9.92296 128.837 9.54529L132.022 4.09515H134.893L129.443 13.2178V19H126.845Z" fill="black"/>
<path d="M1.26871 2.91561L0.147091 9.19165L0.13809 9.24386C-0.816098 14.5927 3.29591 19.5041 8.72938 19.5041C8.74738 19.5041 8.76359 19.5041 8.78159 19.5041H14.8938L17.8554 2.91561H1.26871ZM6.02525 15.3543C5.51395 15.0482 5.04946 14.6575 4.65698 14.1876C4.2519 13.7033 3.94224 13.1596 3.7298 12.5817H6.52035L6.02705 15.3543H6.02525ZM12.0564 16.114H9.3343L10.5675 9.19165H3.59117L4.10607 6.30748H13.8064L12.0546 16.114H12.0564Z" fill="black"/>
</svg>
